PathFileType	4	(X/Y/Z)	 1.9Hzlow3min.trc
DataRate	CameraRate	NumFrames	NumMarkers	Units	OrigDataRate	OrigDataStartFrame	OrigNumFrames
200	200	9	35	m	200	626	1000
Frame#	Time	C7			LSH			RSH			MAN			RASI			LASI			HIPR			HIPL			RPSI			LPSI			COX			RTHI1			RTHI2			RTHI3			RTHI4			RSHA1			RSHA2			RSHA3			RSHA4			RHEEL			RMET5			RMET1			RTOE			LTHI1			LTHI2			LTHI3			LTHI4			LSHA1			LSHA2			LSHA3			LSHA4			LHEEL			LMET5			LMET1			LTOE			
		X1	Y1	Z1	X2	Y2	Z2	X3	Y3	Z3	X4	Y4	Z4	X5	Y5	Z5	X6	Y6	Z6	X7	Y7	Z7	X8	Y8	Z8	X9	Y9	Z9	X10	Y10	Z10	X11	Y11	Z11	X12	Y12	Z12	X13	Y13	Z13	X14	Y14	Z14	X15	Y15	Z15	X16	Y16	Z16	X17	Y17	Z17	X18	Y18	Z18	X19	Y19	Z19	X20	Y20	Z20	X21	Y21	Z21	X22	Y22	Z22	X23	Y23	Z23	X24	Y24	Z24	X25	Y25	Z25	X26	Y26	Z26	X27	Y27	Z27	X28	Y28	Z28	X29	Y29	Z29	X30	Y30	Z30	X31	Y31	Z31	X32	Y32	Z32	X33	Y33	Z33	X34	Y34	Z34	X35	Y35	Z35	
626	3.1300	-0.311131	1.542629	-0.572713	-0.254114	1.513360	-0.800723	-0.254424	1.508841	-0.363820	-0.162983	1.474670	-0.575445	-0.206913	1.025236	-0.454396	-0.188454	1.018200	-0.672453	-0.260249	1.079130	-0.410318	-0.246851	1.072899	-0.736252	-0.383531	1.070467	-0.522590	-0.380892	1.064814	-0.634198	-0.387403	1.079078	-0.574209	-0.272405	0.779501	-0.364431	-0.246923	0.728616	-0.346026	-0.189959	0.758027	-0.333632	-0.208339	0.813844	-0.353363	-0.319435	0.368966	-0.343190	-0.321744	0.327921	-0.353899	-0.263811	0.327007	-0.335073	-0.264012	0.366229	-0.328387	-0.449205	0.064748	-0.445196	-0.290938	0.027526	-0.327205	-0.228670	0.041931	-0.406104	-0.199452	0.030759	-0.397519	-0.202114	0.778864	-0.783638	-0.174411	0.723716	-0.790618	-0.116447	0.744693	-0.772327	-0.135256	0.801761	-0.763384	-0.237280	0.356147	-0.789692	-0.261443	0.323729	-0.788369	-0.208817	0.293360	-0.771756	-0.190313	0.333507	-0.775893	-0.437572	0.066599	-0.720004	-0.258200	0.025604	-0.794493	-0.209605	0.038195	-0.705031	-0.180242	0.028861	-0.708517	
627	3.1350	-0.310974	1.539930	-0.572551	-0.253661	1.510801	-0.800604	-0.253858	1.505915	-0.363665	-0.162875	1.471679	-0.575411	-0.207734	1.022500	-0.454406	-0.189232	1.015336	-0.672876	-0.261266	1.076267	-0.410330	-0.248237	1.070058	-0.736735	-0.384371	1.067861	-0.522816	-0.381713	1.062055	-0.634316	-0.388155	1.076491	-0.574402	-0.271758	0.777275	-0.364132	-0.245898	0.726599	-0.345735	-0.189052	0.756336	-0.333710	-0.207848	0.811993	-0.353456	-0.317541	0.368331	-0.342590	-0.320249	0.327344	-0.353426	-0.262225	0.326023	-0.334780	-0.262145	0.365224	-0.328090	-0.449253	0.064646	-0.444959	-0.290931	0.027505	-0.327115	-0.228679	0.041927	-0.406088	-0.199429	0.030758	-0.397519	-0.201107	0.776811	-0.783391	-0.172760	0.721951	-0.790241	-0.115172	0.743438	-0.771490	-0.134628	0.800332	-0.762603	-0.234740	0.355598	-0.789585	-0.259142	0.323347	-0.788387	-0.206835	0.292589	-0.771488	-0.188025	0.332615	-0.775504	-0.437455	0.066602	-0.720387	-0.258079	0.025589	-0.794592	-0.209535	0.038184	-0.705016	-0.180146	0.028853	-0.708448	
628	3.1400	-0.310840	1.537533	-0.572383	-0.253218	1.508580	-0.800510	-0.253260	1.503310	-0.363508	-0.162757	1.468988	-0.575394	-0.208359	1.020122	-0.454431	-0.189799	1.012825	-0.673209	-0.262176	1.073738	-0.410346	-0.249348	1.067374	-0.737202	-0.385043	1.065544	-0.523111	-0.382342	1.059605	-0.634488	-0.388745	1.074194	-0.574633	-0.271127	0.775335	-0.363868	-0.244942	0.724852	-0.345432	-0.188184	0.754868	-0.333805	-0.207335	0.810378	-0.353605	-0.315916	0.367703	-0.342086	-0.318935	0.326775	-0.352978	-0.260832	0.325087	-0.334555	-0.260496	0.364337	-0.327826	-0.449330	0.064531	-0.444725	-0.290932	0.027487	-0.327037	-0.228704	0.041922	-0.406077	-0.199433	0.030750	-0.397512	-0.200251	0.774929	-0.783159	-0.171407	0.720290	-0.789902	-0.114112	0.742177	-0.770803	-0.134070	0.798922	-0.761969	-0.232585	0.354925	-0.789449	-0.257183	0.322811	-0.788365	-0.205163	0.291753	-0.771122	-0.186106	0.331667	-0.775030	-0.437484	0.066393	-0.720746	-0.258016	0.025583	-0.794675	-0.209547	0.038168	-0.704990	-0.180151	0.028843	-0.708404	
629	3.1450	-0.310720	1.535462	-0.572211	-0.252806	1.506711	-0.800447	-0.252660	1.501040	-0.363353	-0.162624	1.466633	-0.575393	-0.208797	1.018127	-0.454464	-0.190165	1.010678	-0.673449	-0.262975	1.071553	-0.410371	-0.250167	1.064861	-0.737624	-0.385528	1.063482	-0.523402	-0.382780	1.057493	-0.634709	-0.389172	1.072207	-0.574884	-0.270556	0.773665	-0.363652	-0.244106	0.723358	-0.345139	-0.187416	0.753603	-0.333890	-0.206846	0.808981	-0.353775	-0.314533	0.367078	-0.341615	-0.317807	0.326221	-0.352570	-0.259642	0.324214	-0.334415	-0.259094	0.363456	-0.327624	-0.449421	0.064387	-0.444534	-0.290940	0.027471	-0.326976	-0.228739	0.041917	-0.406069	-0.199456	0.030736	-0.397493	-0.199582	0.773209	-0.782951	-0.170425	0.718728	-0.789621	-0.113295	0.740883	-0.770287	-0.133601	0.797522	-0.761507	-0.230879	0.354068	-0.789259	-0.255620	0.322066	-0.788272	-0.203850	0.290808	-0.770646	-0.184605	0.330639	-0.774485	-0.437636	0.065983	-0.721036	-0.258013	0.025585	-0.794734	-0.209628	0.038150	-0.704951	-0.180235	0.028820	-0.708378	
630	3.1500	-0.310614	1.533744	-0.572046	-0.252442	1.505213	-0.800415	-0.252083	1.499118	-0.363206	-0.162477	1.464642	-0.575406	-0.209038	1.016457	-0.454513	-0.190348	1.008903	-0.673618	-0.263656	1.069727	-0.410403	-0.250696	1.062545	-0.738001	-0.385859	1.061784	-0.523744	-0.383033	1.055754	-0.634967	-0.389438	1.070558	-0.575140	-0.270071	0.772263	-0.363497	-0.243429	0.722096	-0.344882	-0.186785	0.752517	-0.333958	-0.206419	0.807787	-0.353949	-0.313394	0.366498	-0.341258	-0.316885	0.325693	-0.352275	-0.258667	0.323442	-0.334308	-0.257949	0.362616	-0.327486	-0.449508	0.064217	-0.444415	-0.290959	0.027460	-0.326935	-0.228777	0.041910	-0.406062	-0.199488	0.030716	-0.397464	-0.199118	0.771639	-0.782764	-0.169812	0.717237	-0.789382	-0.112744	0.739541	-0.769948	-0.133234	0.796131	-0.761223	-0.229653	0.353002	-0.788999	-0.254492	0.321091	-0.788085	-0.202927	0.289714	-0.770059	-0.183545	0.329478	-0.773870	-0.437884	0.065405	-0.721240	-0.258061	0.025598	-0.794761	-0.209755	0.038129	-0.704898	-0.180363	0.028792	-0.708362	
631	3.1550	-0.310518	1.532397	-0.571896	-0.252147	1.504101	-0.800416	-0.251559	1.497590	-0.363073	-0.162315	1.463060	-0.575432	-0.209092	1.015180	-0.454597	-0.190373	1.007520	-0.673747	-0.264186	1.068265	-0.410454	-0.250957	1.060564	-0.738348	-0.385995	1.060420	-0.524067	-0.383116	1.054403	-0.635248	-0.389549	1.069270	-0.575394	-0.269686	0.771137	-0.363410	-0.242924	0.721073	-0.344691	-0.186312	0.751609	-0.334008	-0.206066	0.806791	-0.354110	-0.312531	0.365994	-0.340982	-0.316170	0.325197	-0.352095	-0.257918	0.322769	-0.334256	-0.257072	0.361878	-0.327395	-0.449576	0.064026	-0.444394	-0.290986	0.027454	-0.326917	-0.228811	0.041904	-0.406057	-0.199519	0.030693	-0.397426	-0.198858	0.770218	-0.782594	-0.169551	0.715818	-0.789175	-0.112461	0.738172	-0.769775	-0.132970	0.794760	-0.761105	-0.228909	0.351738	-0.788675	-0.253811	0.319886	-0.787789	-0.202404	0.288464	-0.769369	-0.182933	0.328177	-0.773206	-0.438193	0.064714	-0.721312	-0.258152	0.025623	-0.794747	-0.209901	0.038105	-0.704828	-0.180510	0.028767	-0.708354	
632	3.1600	-0.310430	1.531442	-0.571767	-0.251944	1.503390	-0.800444	-0.251115	1.496474	-0.362957	-0.162147	1.461913	-0.575472	-0.208971	1.014281	-0.454731	-0.190259	1.006527	-0.673854	-0.264527	1.067176	-0.410534	-0.250968	1.058971	-0.738676	-0.385945	1.059393	-0.524357	-0.383049	1.053459	-0.635538	-0.389519	1.068354	-0.575628	-0.269394	0.770302	-0.363427	-0.242584	0.720297	-0.344606	-0.185988	0.750892	-0.334051	-0.205785	0.806021	-0.354258	-0.311972	0.365528	-0.340850	-0.315667	0.324770	-0.352027	-0.257393	0.322222	-0.334267	-0.256471	0.361296	-0.327338	-0.449610	0.063832	-0.444481	-0.291018	0.027457	-0.326921	-0.228834	0.041897	-0.406052	-0.199538	0.030675	-0.397385	-0.198784	0.768958	-0.782433	-0.169639	0.714463	-0.788993	-0.112418	0.736816	-0.769741	-0.132809	0.793436	-0.761128	-0.228633	0.350314	-0.788281	-0.253562	0.318491	-0.787382	-0.202260	0.287117	-0.768604	-0.182746	0.326786	-0.772518	-0.438529	0.063963	-0.721243	-0.258271	0.025659	-0.794691	-0.210048	0.038080	-0.704741	-0.180659	0.028739	-0.708348	
633	3.1650	-0.310354	1.530886	-0.571662	-0.251851	1.503095	-0.800494	-0.250769	1.495792	-0.362856	-0.161984	1.461219	-0.575527	-0.208671	1.013740	-0.454924	-0.190026	1.005919	-0.673977	-0.264650	1.066459	-0.410646	-0.250764	1.057833	-0.738996	-0.385749	1.058793	-0.524623	-0.382848	1.052929	-0.635819	-0.389355	1.067817	-0.575838	-0.269169	0.769789	-0.363526	-0.242379	0.719793	-0.344622	-0.185786	0.750390	-0.334105	-0.205551	0.805491	-0.354393	-0.311654	0.365160	-0.340876	-0.315386	0.324433	-0.352099	-0.257106	0.321835	-0.334333	-0.256154	0.360832	-0.327372	-0.449605	0.063644	-0.444654	-0.291054	0.027461	-0.326941	-0.228841	0.041892	-0.406044	-0.199538	0.030667	-0.397346	-0.198861	0.767884	-0.782274	-0.169974	0.713233	-0.788797	-0.112570	0.735515	-0.769803	-0.132733	0.792215	-0.761259	-0.228788	0.348819	-0.787839	-0.253698	0.316997	-0.786880	-0.202434	0.285753	-0.767794	-0.182934	0.325402	-0.771834	-0.438843	0.063266	-0.721086	-0.258402	0.025705	-0.794594	-0.210173	0.038055	-0.704642	-0.180794	0.028711	-0.708338	
634	3.1700	-0.310300	1.530744	-0.571587	-0.251881	1.503222	-0.800557	-0.250529	1.495557	-0.362773	-0.161843	1.461002	-0.575598	-0.208213	1.013572	-0.455182	-0.189688	1.005705	-0.674129	-0.264528	1.066132	-0.410800	-0.250381	1.057216	-0.739332	-0.385413	1.058594	-0.524850	-0.382529	1.052813	-0.636072	-0.389063	1.067673	-0.576019	-0.268982	0.769630	-0.363707	-0.242277	0.719591	-0.344759	-0.185666	0.750140	-0.334185	-0.205332	0.805253	-0.354527	-0.311593	0.364924	-0.341072	-0.315320	0.324212	-0.352302	-0.257057	0.321631	-0.334443	-0.256120	0.360578	-0.327457	-0.449565	0.063490	-0.444868	-0.291088	0.027468	-0.326967	-0.228832	0.041889	-0.406034	-0.199517	0.030671	-0.397313	-0.199046	0.767042	-0.782100	-0.170486	0.712172	-0.788583	-0.112866	0.734356	-0.769921	-0.132719	0.791158	-0.761457	-0.229307	0.347399	-0.787365	-0.254152	0.315535	-0.786305	-0.202851	0.284496	-0.766988	-0.183423	0.324154	-0.771195	-0.439109	0.062667	-0.720869	-0.258528	0.025764	-0.794466	-0.210264	0.038031	-0.704534	-0.180894	0.028690	-0.708321	
